  <svg width="340" height="257" viewBox="0 0 340 257" fill="none" xmlns="http://www.w3.org/2000/svg">
                    <g clip-path="url(#clip0_237_28)">
                    <path d="M242.4 195.592L239.714 195.694H234.137L229.903 195.795L233.311 187.472H231.452L236.306 174.277L241.47 187.37H238.785L242.4 195.592Z" fill="#ffffff"/>
                    <path d="M35.8383 0.811901C31.82 -0.302942 27.5661 -0.302942 23.5479 0.811901C10.4312 4.46593 0.000198364 21.7211 0.000198364 53.4908C0.000198364 95.4107 17.2478 116.015 35.8383 116.015C41.8542 116.111 47.7345 114.256 52.5697 110.737C63.5175 103.023 71.677 87.4934 71.677 63.1332C71.677 27.7094 54.0157 5.68394 35.8383 0.811901ZM35.8383 106.373C24.4774 106.373 20.0367 84.753 20.0367 56.2312C18.8641 41.9138 21.2382 27.5302 26.9563 14.3114C27.7656 12.7638 29.0832 11.5307 30.6957 10.8121C32.3081 10.0934 34.1205 9.93166 35.8383 10.353C47.3025 13.0935 51.6405 34.0027 51.6405 60.4944C52.0446 71.7436 50.7918 82.9908 47.922 93.8879C45.4432 101.805 41.5187 106.576 35.8383 106.373Z" fill="#ffffff"/>
                    <path d="M74.6719 13.0936V21.3151L81.6949 23.8527L90.9905 27.2024L94.9152 28.1158L102.144 28.7248L110.717 29.4351V21.9241L74.6719 13.0936ZM173.408 37.1492L171.239 44.5589C166.798 59.987 162.254 75.9224 157.813 92.5686C153.268 75.1104 148.827 57.0434 144.283 38.4688L142.115 29.5367L130.237 26.6947L128.068 34.6117C123.42 51.8668 118.876 69.731 114.229 88.2041C110.201 68.919 106.172 49.025 102.144 28.7248C101.525 25.5783 100.905 22.5331 100.389 19.3866L79.7326 14.3116C80.4556 17.5596 81.1786 20.7061 81.7983 23.8527C88.7181 55.5209 95.7412 85.7683 102.454 114.696H113.815C119.186 93.5838 124.66 73.1822 130.03 53.7955C135.504 75.3137 140.978 95.9182 146.452 115.812H157.709C164.526 91.4521 171.239 68.5131 178.366 46.7919V45.7769C179.088 43.3408 179.915 40.9049 180.638 38.5704L173.408 37.1492ZM119.599 24.0555V31.4652L128.068 34.6117L133.852 36.6419L140.152 38.0627H144.283L154.611 38.8749V32.1758L119.599 24.0555ZM162.977 34.2056V40.8034L171.239 44.1528L173.821 45.0663L176.92 45.7769H178.469L187.558 46.3858V40.1944L162.977 34.2056Z" fill="#ffffff"/>
                    <path d="M193.755 42.2243V48.416L202.327 51.258L210.589 53.8968H212.449V46.3858L193.755 42.2243ZM210.589 110.128L202.327 110.636H193.755V116.726L212.449 117.234V109.824L210.589 110.128ZM222.157 85.5653V79.3736C222.157 71.152 222.157 63.0319 222.157 55.2164C222.157 53.1863 222.157 51.2579 222.157 49.2279L201.501 44.3557C201.501 46.6902 201.501 48.9235 201.501 51.258C201.501 60.5961 201.501 69.7312 201.501 78.8662V83.0278C201.501 92.3659 201.501 101.501 201.501 110.636C201.501 112.869 201.501 115.102 201.501 117.335L222.157 117.944C222.157 116.015 222.157 114.087 222.157 112.158C222.157 103.429 222.157 94.2944 222.157 85.5653ZM253.141 56.7388L212.551 46.5887V52.6788L241.987 59.3779C242.813 63.3365 243.536 67.1935 244.362 71.1521L254.07 72.979L253.141 56.7388ZM212.551 77.9528V84.1442L238.165 87.4935V81.6066L212.551 77.9528ZM246.635 101.907C245.808 105.662 245.085 109.316 244.259 113.072L212.551 111.651V117.639L255.517 118.756C255.517 113.376 256.136 108.098 256.343 102.719L246.635 101.907ZM236.306 73.588C236.306 76.1255 235.377 78.663 234.86 81.2005V82.9262V84.7531V87.1891C234.86 89.8281 235.79 92.4671 236.203 95.1061L243.019 95.8167V74.8059L236.306 73.588Z" fill="#ffffff"/>
                    <path d="M279.271 113.478H277.619H271.835L261.507 114.087V118.959L292.491 119.872V115.508L279.271 113.478ZM322.546 102.211C310.389 90.5256 298.973 78.1192 288.36 65.062L262.127 58.6674V63.844L270.079 66.1786C270.699 66.9906 271.319 67.7009 271.835 68.5129L279.271 77.648C291.937 92.9804 305.746 107.366 320.583 120.685H330.911V109.215C327.606 106.982 325.128 104.444 322.546 102.211ZM271.835 61.002V118.959H279.271V67.295L271.835 61.002ZM309.325 70.137V73.9941L322.546 77.8512L324.921 78.5617L328.226 79.272H330.188L340.516 80.5916V77.039L309.325 70.137ZM322.546 73.3851V115.914L330.188 120.685V75.212L322.546 73.3851Z" fill="#ffffff"/>
                    <path d="M2.37546 140.68V150.221L11.0513 151.135L19.2103 151.947H21.0692V140.274L2.37546 140.68ZM19.2103 241.064L11.0513 244.109L2.37546 247.459V256.695L21.0692 252.128V240.354L19.2103 241.064ZM30.4675 197.013V188.081C30.4675 175.089 30.4675 162.198 30.4675 149.612C30.4675 146.364 30.4675 143.218 30.4675 139.97L10.6378 140.477C10.6378 144.029 10.6378 147.582 10.6378 151.135C10.6378 165.751 10.6378 180.367 10.6378 195.186V200.261C10.6378 215.08 10.6378 229.696 10.6378 244.109V254.869L30.4675 250.098C30.4675 246.85 30.4675 243.703 30.4675 239.948C30.4675 226.245 30.4675 211.832 30.4675 197.013ZM47.4057 188.994C53.1659 187.45 58.2318 184.049 61.7902 179.337C65.3486 174.626 67.1935 168.876 67.0293 163.01C67.0293 149.511 59.6964 139.361 39.9698 139.767H21.0692V149.917L34.9091 149.308C43.9978 149.308 48.2321 154.383 48.2321 166.36C48.2321 178.337 43.5842 186.66 33.7726 187.573L21.0692 189.096V198.231L34.4956 196.404C46.063 194.78 51.5372 200.464 51.5372 215.08C52.2377 220.486 50.9019 225.958 47.782 230.464C44.6621 234.97 39.9734 238.198 34.599 239.542L21.0692 242.485V252.635L35.5288 249.185C64.4474 241.876 71.677 224.723 71.677 211.832C71.677 198.941 64.3437 189.705 47.4057 188.994Z" fill="#ffffff"/>
                    <path d="M74.6719 137.635V145.958L83.3478 146.669L91.5067 147.481H93.3657V137.331L74.6719 137.635ZM103.074 222.592L95.2247 223.302L91.5067 224.114L83.3478 227.057L74.6719 230.102V238.324L112.059 229.29V221.779L103.074 222.592ZM103.074 188.081V180.063C103.074 168.086 103.074 156.514 103.074 145.248C103.074 142.507 103.074 139.665 103.074 136.925L83.141 137.432C83.141 140.579 83.141 143.522 83.141 146.669C83.141 159.052 83.141 171.638 83.141 184.021V189.502C83.141 202.19 83.141 214.674 83.141 227.057C83.141 230.001 83.141 233.148 83.141 236.193L103.074 231.422C103.074 228.58 103.074 225.535 103.074 222.592C102.764 211.325 102.764 199.855 102.764 188.081H103.074ZM142.837 214.065H141.391C141.391 212.543 141.391 210.919 140.668 209.295L139.119 199.957C137.673 190.822 135.298 185.036 128.791 182.6C126.222 181.638 123.483 181.189 120.735 181.281C122.945 180.63 125.088 179.781 127.139 178.743C131.357 177 134.964 174.082 137.515 170.348C140.066 166.615 141.449 162.229 141.494 157.732C141.494 144.233 131.166 136.316 113.092 136.62L93.9854 137.128V145.552L108.342 144.943C109.918 144.729 111.516 144.729 113.092 144.943C119.495 146.263 123.42 151.338 123.42 160.27C123.452 162.456 123.21 164.638 122.698 166.766C122 170.065 120.215 173.045 117.62 175.247C115.025 177.449 111.764 178.749 108.342 178.946L94.7084 180.672V188.893L108.135 186.965C115.158 185.95 118.463 189.908 119.186 198.942C119.806 204.22 120.529 209.092 121.252 214.573C122.388 225.23 128.275 227.057 138.19 224.723C141.386 224.045 144.477 222.952 147.381 221.475L150.997 219.749V212.949L142.837 214.065Z" fill="#ffffff"/>
                    <path d="M142.011 138.143V145.248L148.621 145.755L159.672 146.364H164.836L170.826 145.349L179.605 143.827V137.33L142.011 138.143ZM200.984 136.417C199.745 138.853 198.609 141.391 197.473 143.827C193.032 153.977 188.488 163.518 184.046 174.277C182.601 171.13 181.051 167.984 179.605 164.736L170.826 145.349C169.793 142.812 168.657 140.274 167.521 137.737L145.213 138.447L148.621 146.06C155.127 160.27 161.531 173.871 167.935 186.66L170.413 191.431L183.53 189.096L187.558 180.164C193.445 167.476 199.228 155.398 205.115 143.827C206.355 141.391 207.594 138.853 208.937 136.417H200.984ZM187.661 205.945L180.224 206.859L175.06 207.975L167.728 210.411L157.4 213.761V220.46L197.266 210.31V204.321L187.661 205.945ZM187.661 205.945C187.661 198.942 187.661 191.735 187.661 180.063V177.221L168.037 180.063V186.558C168.037 196.708 168.037 203.611 168.037 210.411C168.037 212.847 168.037 215.385 168.037 218.024L188.694 213.05C188.28 210.513 188.281 208.178 187.661 205.945ZM189.417 136.925V143.116L197.473 143.928H200.468H203.05H205.115L213.481 142.203V136.417L189.417 136.925Z" fill="#ffffff"/>
                    <path d="M259.958 177.22C258.822 181.382 257.789 185.543 256.756 189.705C253.556 191.592 250.069 192.963 246.428 193.765C234.034 196.708 223.603 190.415 223.603 168.999C223.603 147.582 234.55 138.548 246.944 137.736C249.796 137.603 252.644 138.053 255.31 139.056C256.446 143.116 257.479 147.075 258.615 151.033L267.497 150.221C267.497 145.654 267.497 140.984 266.981 136.417C259.773 133.538 252.037 132.155 244.259 132.357C238.826 131.915 233.359 132.621 228.227 134.427C223.095 136.233 218.415 139.097 214.502 142.828C210.589 146.558 207.534 151.068 205.54 156.054C203.547 161.041 202.663 166.389 202.946 171.739C202.946 198.028 220.918 205.945 243.33 200.058C252.013 197.897 260.256 194.292 267.704 189.4V175.596L259.958 177.22Z" fill="#ffffff"/>
                    <path d="M270.905 130.429V134.895H279.581H287.74H289.599V129.109L270.905 130.429ZM287.74 179.047L279.581 181.382L270.905 183.919V188.69L289.599 184.325V178.743L287.74 179.047ZM299.411 157.529V152.86C299.411 146.669 299.411 140.477 299.411 134.488C299.411 132.966 299.411 131.545 299.411 130.022H278.755V135.301C278.755 142.406 278.755 149.511 278.755 156.616V159.762C278.755 166.969 278.755 174.074 278.755 181.077V186.356L299.411 181.686C299.411 180.265 299.411 178.743 299.411 177.322C299.101 171.13 299.101 164.431 299.101 157.529H299.411ZM330.395 129.515L289.083 130.124V134.895L318.621 133.981C319.344 136.722 320.17 139.462 320.893 142.203L330.602 141.492C330.602 137.432 330.291 133.474 330.085 129.515H330.395ZM289.083 153.977V158.849L314.696 155.499V151.135L289.083 153.977ZM323.269 164.127C322.442 166.969 321.72 169.912 320.893 172.856L289.083 179.656V184.224L332.151 174.074C332.151 170.115 332.151 166.157 332.977 162.198L323.269 164.127ZM312.941 145.349C312.941 147.379 312.011 149.308 311.494 151.338V152.759V154.078V155.804C311.494 157.732 312.424 159.559 312.837 161.386L319.551 160.371V145.045L312.941 145.349Z" fill="#ffffff"/>
                    <path d="M55.9781 107.794H20.243L17.4544 103.937L28.5055 80.5916L33.8761 91.7567L42.3451 66.5845L55.9781 107.794Z" fill="#ffffff"/>
                    <path d="M255.413 194.475H247.564L242.916 194.577L246.324 186.254H244.569L247.357 178.641H245.808L249.32 168.999L253.244 178.641H251.592L254.484 186.152H251.902L255.413 194.475Z" fill="#ffffff"/>
                    </g>
                    <defs>
                    <clipPath id="clip0_237_28">
                    <rect width="340" height="257" fill="white"/>
                    </clipPath>
                    </defs>
                    </svg>