<svg width="1882" height="937" viewBox="0 0 1882 937" fill="none" xmlns="http://www.w3.org/2000/svg">
<path d="M1719.47 689.518L1467.92 315.263L1347.87 495.311L1121.95 90.7104L1054.51 210.742L936.489 0.347656L707.866 423.157L597.263 243.784L439.455 500.03L376.736 414.39L174.416 696.262L0.418945 931.606V937L1888.74 928.233L1719.47 689.518ZM512.963 516.216L475.196 583.649L485.314 600.507C455.64 645.688 412.477 709.748 382.129 754.929C350.432 777.856 298.502 810.225 263.433 831.804L585.799 302.451L505.545 498.682L512.963 516.216ZM874.441 268.734C863.651 292.335 852.187 315.937 841.396 336.167L852.189 353.026C824.539 399.555 784.748 466.314 758.446 513.518C746.307 495.311 732.819 469.686 720.68 452.153C793.515 317.286 862.304 182.419 935.139 47.5519C909.512 114.985 885.909 182.419 860.957 249.852L874.441 268.734ZM1385.64 596.462L1347.87 663.895L1357.99 680.753L1343.15 703.006L1304.04 635.572L1457.8 382.697C1428.13 450.13 1401.15 511.495 1372.15 578.928C1378.04 585.5 1383.45 592.485 1388.34 599.832L1385.64 596.462Z" fill="#231F20"/>
</svg>
